<svg aria-hidden="true" style="position: absolute; width: 0; height: 0; overflow: hidden;" version="1.1"
    xmlns="http://www.w3.org/2000/svg" xmlns:xlink="http://www.w3.org/1999/xlink">
    <defs>
        <symbol id="logo-icon" viewBox="0 0 16 16" fill="none">
            <path d="M14.5411 0.156924H12.5364C11.9178 0.156924 11.4163 0.648347 11.4163 1.25459V3.21923C11.4163 3.82547 11.9178 4.31692 12.5364 4.31692H14.5411C15.1597 4.31692 15.6612 3.82547 15.6612 3.21923V1.25459C15.6612 0.648347 15.1597 0.156924 14.5411 0.156924Z" fill="#FBFBFB"/>
            <path d="M3.36519 11.52H1.20624C0.540049 11.52 0 12.0115 0 12.6177V14.5823C0 15.1886 0.540049 15.68 1.20624 15.68H3.36519C4.03138 15.68 4.57143 15.1886 4.57143 14.5823V12.6177C4.57143 12.0115 4.03138 11.52 3.36519 11.52Z" fill="#FBFBFB"/>
            <path d="M3.1248 5.79091H1.12007C0.501486 5.79091 0 6.28233 0 6.88857V8.85321C0 9.45945 0.501599 9.95091 1.12018 9.95091H3.1248C3.74341 9.95091 4.2449 9.45945 4.2449 8.85321V6.88857C4.2449 6.28233 3.74341 5.79091 3.1248 5.79091Z" fill="#FBFBFB"/>
            <path d="M8.88295 11.4891H6.87822C6.25964 11.4891 5.75815 11.9805 5.75815 12.5868L5.75804 14.5514C5.75804 15.1576 6.25975 15.6491 6.87833 15.6491H8.88295C9.50157 15.6491 10.0031 15.1576 10.0031 14.5514V12.5868C10.0031 11.9805 9.50157 11.4891 8.88295 11.4891Z" fill="#FBFBFB"/>
            <path d="M3.1248 0.0431361H1.12007C0.501486 0.0431361 0 0.534559 0 1.1408V3.10544C0 3.71168 0.501599 4.20314 1.12018 4.20314H3.1248C3.74341 4.20314 4.2449 3.71168 4.2449 3.10544V1.1408C4.2449 0.534559 3.74341 0.0431361 3.1248 0.0431361Z" fill="#FBFBFB"/>
            <path d="M9.03794 5.84874H7.03321C6.41463 5.84874 5.91314 6.34016 5.91314 6.9464V8.91104C5.91314 9.51728 6.41474 10.0087 7.03332 10.0087H9.03794C9.65655 10.0087 10.158 9.51728 10.158 8.91104V6.9464C10.158 6.34016 9.65655 5.84874 9.03794 5.84874Z" fill="#FBFBFB"/>
            <path d="M14.6667 11.4891H12.6619C12.0434 11.4891 11.5419 11.9805 11.5419 12.5868V14.5514C11.5419 15.1576 12.0435 15.6491 12.662 15.6491H14.6667C15.2853 15.6491 15.7868 15.1576 15.7868 14.5514V12.5868C15.7868 11.9805 15.2853 11.4891 14.6667 11.4891Z" fill="#FBFBFB"/>
            <path d="M8.7953 0.111854H6.79056C6.17198 0.111854 5.6705 0.603277 5.6705 1.20952V3.17416C5.6705 3.7804 6.1721 4.27185 6.79068 4.27185H8.7953C9.41391 4.27185 9.91539 3.78003 9.91539 3.17379V1.20952C9.91539 0.603277 9.41391 0.111854 8.7953 0.111854Z" fill="#FBFBFB"/>
            <path d="M14.5219 5.96291H12.5171C11.8985 5.96291 11.3971 6.45433 11.3971 7.06057V9.02521C11.3971 9.63145 11.8987 10.1229 12.5172 10.1229H14.5219C15.1405 10.1229 15.642 9.63145 15.642 9.02521V7.06057C15.642 6.45433 15.1405 5.96291 14.5219 5.96291Z" fill="#FBFBFB"/>
        </symbol>

        <symbol id="text-logo-icon" viewBox="0 0 148 12" fill="none">
            <path d="M6.30096 12C2.5132 12 0 9.648 0 5.984C0 2.4 2.4773 0 6.2112 0C9.35271 0 11.5607 1.648 11.8839 4.128H9.2809C9.02958 2.704 7.82683 1.904 6.2112 1.904C3.94932 1.904 2.60296 3.536 2.60296 5.984C2.60296 8.672 4.11088 10.096 6.30096 10.096C8.20381 10.096 9.42451 9.136 9.55017 7.696V7.536H6.04964V5.744H11.9736V7.216C11.8659 10.08 9.60403 12 6.30096 12Z" fill="#FBFBFB"/>
            <path d="M13.543 11.84V0.16H19.8439C23.0572 0.16 24.3318 1.552 24.3318 3.568C24.3318 5.376 22.8957 6.24 21.2262 6.448V6.496C22.3033 6.736 22.788 7.264 23.2368 8.304C23.8112 9.616 23.901 11.184 24.637 11.744V11.84H21.7647C21.1544 11.296 21.0108 9.584 20.6876 8.544C20.3645 7.472 19.6644 7.344 18.354 7.344H16.0562V11.84H13.543ZM16.0562 5.488H19.5747C21.0467 5.488 21.7288 4.72 21.7288 3.728C21.7288 2.64 20.8851 2.016 19.5747 2.016H16.0562V5.488Z" fill="#FBFBFB"/>
            <path d="M26.001 11.84V0.16H34.9588V2.016H28.5142V4.8H34.3305V6.656H28.5142V9.936H35.0485V11.84H26.001Z" fill="#FBFBFB"/>
            <path d="M36.7936 11.84V0.16H45.7514V2.016H39.3068V4.8H45.1231V6.656H39.3068V9.936H45.8411V11.84H36.7936Z" fill="#FBFBFB"/>
            <path d="M47.5862 11.84V0.16H50.638L54.9822 6.608C56.3106 8.56 56.4722 9.2 56.4722 9.2H56.526L56.4901 0.16H59.0033V11.84H55.9336L51.4278 5.2C50.4046 3.696 50.1353 2.784 50.1353 2.784H50.0994V11.84H47.5862Z" fill="#FBFBFB"/>
            <path d="M60.894 11.84V9.472H63.5149V11.84H60.894Z" fill="#FBFBFB"/>
            <path d="M65.4023 11.84V0.16H67.9155V4.832H73.9293V0.16H76.4425V11.84H73.9293V6.688H67.9155V11.84H65.4023Z" fill="#FBFBFB"/>
            <path d="M77.5166 11.84L82.543 0.16H85.2716L90.3699 11.84H87.6771L86.618 9.152H81.1787L80.1196 11.84H77.5166ZM81.8968 7.296H85.8999L84.7331 4.416C83.9253 2.288 83.9073 1.904 83.9073 1.904H83.8714C83.8714 1.904 83.8714 2.288 83.0636 4.416L81.8968 7.296Z" fill="#FBFBFB"/>
            <path d="M91.4403 11.84V0.16H97.7413C100.955 0.16 102.229 1.552 102.229 3.568C102.229 5.376 100.793 6.24 99.1236 6.448V6.496C100.201 6.736 100.685 7.264 101.134 8.304C101.709 9.616 101.798 11.184 102.534 11.744V11.84H99.6621C99.0518 11.296 98.9081 9.584 98.585 8.544C98.2619 7.472 97.5618 7.344 96.2513 7.344H93.9536V11.84H91.4403ZM93.9536 5.488H97.472C98.9441 5.488 99.6262 4.72 99.6262 3.728C99.6262 2.64 98.7825 2.016 97.472 2.016H93.9536V5.488Z" fill="#FBFBFB"/>
            <path d="M106.563 11.84L101.752 0.16H104.445C104.445 0.16 107.048 6.704 107.317 7.504C107.748 8.784 107.945 9.44 107.945 9.44H107.981C107.963 9.44 108.161 8.784 108.609 7.504C108.897 6.704 111.392 0.16 111.392 0.16H113.995L109.363 11.84H106.563Z" fill="#FBFBFB"/>
            <path d="M115.024 11.84V0.16H123.982V2.016H117.537V4.8H123.354V6.656H117.537V9.936H124.072V11.84H115.024Z" fill="#FBFBFB"/>
            <path d="M130.311 12C126.972 12 124.961 10.384 124.961 7.984H127.834C127.798 9.344 128.803 10.096 130.311 10.096C131.909 10.096 132.662 9.536 132.662 8.704C132.662 7.872 132.016 7.52 129.718 6.96C127.618 6.448 125.32 5.84 125.32 3.44C125.32 1.536 127.187 0 130.131 0C133.165 0 135.104 1.52 135.104 3.664H132.321C132.303 2.528 131.442 1.904 130.131 1.904C128.857 1.904 128.013 2.48 128.013 3.248C128.013 4.16 128.713 4.448 130.544 4.912C133.255 5.584 135.445 5.856 135.445 8.464C135.445 10.56 133.309 12 130.311 12Z" fill="#FBFBFB"/>
            <path d="M139.537 11.84V2.064H135.57V0.16H146V2.064H142.051V11.84H139.537Z" fill="#FBFBFB"/>
        </symbol>

        <symbol id="logo-icon-desk" viewBox="0 0 18 18" fill="none">
            <path d="M16.3587 0.176539H14.1034C13.4075 0.176539 12.8433 0.729391 12.8433 1.41141V3.62163C12.8433 4.30365 13.4075 4.85654 14.1034 4.85654H16.3587C17.0547 4.85654 17.6188 4.30365 17.6188 3.62163V1.41141C17.6188 0.729391 17.0547 0.176539 16.3587 0.176539Z" fill="#FBFBFB"/>
            <path d="M3.78584 12.96H1.35702C0.607555 12.96 0 13.5129 0 14.1949V16.4051C0 17.0871 0.607555 17.64 1.35702 17.64H3.78584C4.5353 17.64 5.14286 17.0871 5.14286 16.4051V14.1949C5.14286 13.5129 4.5353 12.96 3.78584 12.96Z" fill="#FBFBFB"/>
            <path d="M3.5154 6.51477H1.26007C0.564171 6.51477 0 7.06763 0 7.74965V9.95986C0 10.6419 0.564299 11.1948 1.2602 11.1948H3.5154C4.21134 11.1948 4.77551 10.6419 4.77551 9.95986V7.74965C4.77551 7.06763 4.21134 6.51477 3.5154 6.51477Z" fill="#FBFBFB"/>
            <path d="M9.99332 12.9252H7.738C7.0421 12.9252 6.47792 13.4781 6.47792 14.1601L6.4778 16.3703C6.4778 17.0523 7.04222 17.6052 7.73813 17.6052H9.99332C10.6893 17.6052 11.2534 17.0523 11.2534 16.3703V14.1601C11.2534 13.4781 10.6893 12.9252 9.99332 12.9252Z" fill="#FBFBFB"/>
            <path d="M3.5154 0.0485281H1.26007C0.564171 0.0485281 0 0.601379 0 1.2834V3.49362C0 4.17564 0.564299 4.72853 1.2602 4.72853H3.5154C4.21134 4.72853 4.77551 4.17564 4.77551 3.49362V1.2834C4.77551 0.601379 4.21134 0.0485281 3.5154 0.0485281Z" fill="#FBFBFB"/>
            <path d="M10.1677 6.57983H7.91236C7.21645 6.57983 6.65228 7.13268 6.65228 7.8147V10.0249C6.65228 10.7069 7.21658 11.2598 7.91249 11.2598H10.1677C10.8636 11.2598 11.4278 10.7069 11.4278 10.0249V7.8147C11.4278 7.13268 10.8636 6.57983 10.1677 6.57983Z" fill="#FBFBFB"/>
            <path d="M16.5 12.9252H14.2447C13.5488 12.9252 12.9846 13.4781 12.9846 14.1601V16.3703C12.9846 17.0523 13.5489 17.6052 14.2448 17.6052H16.5C17.1959 17.6052 17.7601 17.0523 17.7601 16.3703V14.1601C17.7601 13.4781 17.1959 12.9252 16.5 12.9252Z" fill="#FBFBFB"/>
            <path d="M9.89471 0.125835H7.63938C6.94348 0.125835 6.37931 0.678686 6.37931 1.36071V3.57093C6.37931 4.25295 6.94361 4.80583 7.63951 4.80583H9.89471C10.5906 4.80583 11.1548 4.25253 11.1548 3.57051V1.36071C11.1548 0.678686 10.5906 0.125835 9.89471 0.125835Z" fill="#FBFBFB"/>
            <path d="M16.3371 6.70827H14.0818C13.3859 6.70827 12.8217 7.26113 12.8217 7.94315V10.1534C12.8217 10.8354 13.386 11.3883 14.0819 11.3883H16.3371C17.033 11.3883 17.5972 10.8354 17.5972 10.1534V7.94315C17.5972 7.26113 17.033 6.70827 16.3371 6.70827Z" fill="#FBFBFB"/>
        </symbol>

        <symbol id="text-logo-icon-desk" viewBox="0 0 168 15" fill="none">
            <path d="M7.25042 15C2.89191 15 0 12.06 0 7.48C0 3 2.85059 0 7.14714 0C10.762 0 13.3028 2.06 13.6746 5.16H10.6794C10.3902 3.38 9.00622 2.38 7.14714 2.38C4.54442 2.38 2.99519 4.42 2.99519 7.48C2.99519 10.84 4.73033 12.62 7.25042 12.62C9.44001 12.62 10.8446 11.42 10.9892 9.62V9.42H6.96123V7.18H13.7779V9.02C13.6539 12.6 11.0512 15 7.25042 15Z" fill="#FBFBFB"/>
            <path d="M15.5837 14.8V0.2H22.8341C26.5316 0.2 27.9982 1.94 27.9982 4.46C27.9982 6.72 26.3457 7.8 24.4247 8.06V8.12C25.664 8.42 26.2218 9.08 26.7382 10.38C27.3992 12.02 27.5025 13.98 28.3494 14.68V14.8H25.0444C24.342 14.12 24.1768 11.98 23.805 10.68C23.4331 9.34 22.6275 9.18 21.1196 9.18H18.4756V14.8H15.5837ZM18.4756 6.86H22.5243C24.2181 6.86 25.003 5.9 25.003 4.66C25.003 3.3 24.0322 2.52 22.5243 2.52H18.4756V6.86Z" fill="#FBFBFB"/>
            <path d="M29.919 14.8V0.2H40.2265V2.52H32.8109V6H39.5036V8.32H32.8109V12.42H40.3298V14.8H29.919Z" fill="#FBFBFB"/>
            <path d="M42.3378 14.8V0.2H52.6454V2.52H45.2298V6H51.9224V8.32H45.2298V12.42H52.7487V14.8H42.3378Z" fill="#FBFBFB"/>
            <path d="M54.7567 14.8V0.2H58.2683L63.2672 8.26C64.7958 10.7 64.9817 11.5 64.9817 11.5H65.0437L65.0023 0.2H67.8943V14.8H64.362L59.1772 6.5C57.9998 4.62 57.69 3.48 57.69 3.48H57.6486V14.8H54.7567Z" fill="#FBFBFB"/>
            <path d="M70.0698 14.8V11.84H73.0856V14.8H70.0698Z" fill="#FBFBFB"/>
            <path d="M75.2575 14.8V0.2H78.1494V6.04H85.0693V0.2H87.9612V14.8H85.0693V8.36H78.1494V14.8H75.2575Z" fill="#FBFBFB"/>
            <path d="M89.1972 14.8L94.981 0.2H98.1208L103.987 14.8H100.889L99.67 11.44H93.4111L92.1924 14.8H89.1972ZM94.2374 9.12H98.8438L97.5011 5.52C96.5716 2.86 96.5509 2.38 96.5509 2.38H96.5096C96.5096 2.38 96.5096 2.86 95.5801 5.52L94.2374 9.12Z" fill="#FBFBFB"/>
            <path d="M105.219 14.8V0.2H112.469C116.167 0.2 117.634 1.94 117.634 4.46C117.634 6.72 115.981 7.8 114.06 8.06V8.12C115.299 8.42 115.857 9.08 116.374 10.38C117.035 12.02 117.138 13.98 117.985 14.68V14.8H114.68C113.977 14.12 113.812 11.98 113.44 10.68C113.068 9.34 112.263 9.18 110.755 9.18H108.111V14.8H105.219ZM108.111 6.86H112.16C113.853 6.86 114.638 5.9 114.638 4.66C114.638 3.3 113.668 2.52 112.16 2.52H108.111V6.86Z" fill="#FBFBFB"/>
            <path d="M122.62 14.8L117.084 0.2H120.183C120.183 0.2 123.178 8.38 123.488 9.38C123.984 10.98 124.211 11.8 124.211 11.8H124.252C124.232 11.8 124.459 10.98 124.975 9.38C125.306 8.38 128.177 0.2 128.177 0.2H131.172L125.843 14.8H122.62Z" fill="#FBFBFB"/>
            <path d="M132.356 14.8V0.2H142.664V2.52H135.248V6H141.941V8.32H135.248V12.42H142.767V14.8H132.356Z" fill="#FBFBFB"/>
            <path d="M149.947 15C146.105 15 143.791 12.98 143.791 9.98H147.096C147.055 11.68 148.212 12.62 149.947 12.62C151.785 12.62 152.653 11.92 152.653 10.88C152.653 9.84 151.909 9.4 149.265 8.7C146.848 8.06 144.204 7.3 144.204 4.3C144.204 1.92 146.353 0 149.74 0C153.231 0 155.462 1.9 155.462 4.58H152.26C152.24 3.16 151.248 2.38 149.74 2.38C148.274 2.38 147.303 3.1 147.303 4.06C147.303 5.2 148.108 5.56 150.215 6.14C153.334 6.98 155.854 7.32 155.854 10.58C155.854 13.2 153.396 15 149.947 15Z" fill="#FBFBFB"/>
            <path d="M160.564 14.8V2.58H155.999V0.2H168V2.58H163.456V14.8H160.564Z" fill="#FBFBFB"/>
        </symbol>

        <symbol id="menu-m-icon" viewBox="0 0 32 32" fill="none">
            <path d="M5.33334 8H26.6667M5.33334 16H16M5.33334 24H26.6667" stroke="#FBFBFB" stroke-width="3" stroke-linecap="round" stroke-linejoin="round"/>
        </symbol>

        <symbol id="menu-t-icon" viewBox="0 0 40 40" fill="none">
            <path d="M6.66663 10H33.3333M6.66663 20H20M6.66663 30H33.3333" stroke="#FBFBFB" stroke-width="4" stroke-linecap="round" stroke-linejoin="round"/>
        </symbol>
    </defs>
</svg>